# xmcd
#
# Track frame offsets: 
#        150
#        15545
#        28812
#        44254
#        59968
#        76879
#        92698
#        106698
#        119830
#        133979
#        147253
#        162856
#        178046
#        195977
#        210000
#        223605
#        237815
#        253781
#        267618
#        284306
#
# Disc length: 3983 seconds
#
# Revision: 0
# Processed by: cddbd v1.5.2PL0 Copyright (c) Steve Scherf et al.
# Submitted via: ExactAudioCopy v1.1
#
DISCID=260f8d14
DTITLE=Various Artist - Het Beste Uit MENT Top 600 - CD 3
DYEAR=2017
DGENRE=Pop-Folk
TTITLE0=Bart Kaëll - Op Mijn Fiets
TTITLE1=Maarten Cox - Leuker Met Twee
TTITLE2=Bart Herman - Bartje (Is Een Leuke Naam)
TTITLE3=Lindsay - Over Alle 7 Zeeën
TTITLE4=Steve Tielens - De Polonaise
TTITLE5=Semino Rossi - Du Warst Das Schönste Mädchen
TTITLE6=Garry Hagger - Jij Laat De Zon Altijd Schijnen
TTITLE7=Dennie Damaro - Marina
TTITLE8=John Terra - Welkom Rosie
TTITLE9=Salim Seghers - Agadou Dou Dou
TTITLE10=Matthias Lens - Shalala Lala
TTITLE11=Filip D'haeze - Te Quiero
TTITLE12=Helene Fischer - Hundert Prozent
TTITLE13=Christiano And His Magical Orchestra - Dancing Coyotes
TTITLE14=Loredana - Dichterbij
TTITLE15=Robby Longo - Wagon Wheel
TTITLE16=Ida De Nijs - Amsterdam
TTITLE17=Amaryllis Temmerman - Liefde Van Mijn Leven
TTITLE18=Koen Crucke - Kleine Edith
TTITLE19=Get Ready! - De Allerliefste
EXTD=
EXTT0=
EXTT1=
EXTT2=
EXTT3=
EXTT4=
EXTT5=
EXTT6=
EXTT7=
EXTT8=
EXTT9=
EXTT10=
EXTT11=
EXTT12=
EXTT13=
EXTT14=
EXTT15=
EXTT16=
EXTT17=
EXTT18=
EXTT19=
PLAYORDER=
